<?xml version="1.0" encoding="UTF-8" standalone="no"?>
<!-- Created with Inkscape (http://www.inkscape.org/) -->

<svg
   xmlns:dc="http://purl.org/dc/elements/1.1/"
   xmlns:cc="http://creativecommons.org/ns#"
   xmlns:rdf="http://www.w3.org/1999/02/22-rdf-syntax-ns#"
   xmlns:svg="http://www.w3.org/2000/svg"
   xmlns="http://www.w3.org/2000/svg"
   xmlns:sodipodi="http://sodipodi.sourceforge.net/DTD/sodipodi-0.dtd"
   xmlns:inkscape="http://www.inkscape.org/namespaces/inkscape"
   width="210mm"
   height="297mm"
   viewBox="0 0 744.09448819 1052.3622047"
   id="svg4896"
   version="1.1"
   inkscape:version="0.91 r13725"
   sodipodi:docname="fourth.svg">
  <defs
     id="defs4898" />
  <sodipodi:namedview
     id="base"
     pagecolor="#ffffff"
     bordercolor="#666666"
     borderopacity="1.0"
     inkscape:pageopacity="0.0"
     inkscape:pageshadow="2"
     inkscape:zoom="0.35"
     inkscape:cx="-225"
     inkscape:cy="520"
     inkscape:document-units="px"
     inkscape:current-layer="layer1"
     showgrid="false"
     inkscape:window-width="1680"
     inkscape:window-height="949"
     inkscape:window-x="40"
     inkscape:window-y="123"
     inkscape:window-maximized="0" />
  <metadata
     id="metadata4901">
    <rdf:RDF>
      <cc:Work
         rdf:about="">
        <dc:format>image/svg+xml</dc:format>
        <dc:type
           rdf:resource="http://purl.org/dc/dcmitype/StillImage" />
        <dc:title></dc:title>
      </cc:Work>
    </rdf:RDF>
  </metadata>
  <g
     inkscape:label="レイヤー 1"
     inkscape:groupmode="layer"
     id="layer1">
    <g
       id="g5496"
       transform="matrix(139.09141,0,0,139.09141,242.33081,214.03277)">
      <rect
         style="fill:currentColor"
         id="rect18"
         ry="0.039999999"
         height="3.3122001"
         width="0.13"
         y="-2"
         x="-0.064999998"
         transform="translate(1.2512,1.9999997)" />
      <a
         transform="translate(-87.2696,-6.3453003)"
         id="a20">
        <path
           style="fill:currentColor"
           inkscape:connector-curvature="0"
           id="path22"
           d="m 220,138 c 56,0 109,-29 109,-91 0,-72 -56,-121 -103,-149 -36,-21 -76,-36 -117,-36 -56,0 -109,29 -109,91 0,72 56,121 103,149 36,21 76,36 117,36 z"
           transform="matrix(0.004,0,0,-0.004,87.2696,9.8453)" />
      </a>
    </g>
  </g>
</svg>
